<svg xmlns="http://www.w3.org/2000/svg" viewBox="-1 10 35 30">
<path transform="matrix(1,0,0,-1,16.67598,32.51674)" d="M0 0-.646-3.04C-.984-4.63-1.965-6.115-3.02-7.372H5.64C8.402-7.372 11.117-5.133 11.704-2.371L13.143 4.401H5.336C2.906 4.401 .517 2.43 0 0M-1.103 12.623-.449 15.698C-.015 17.742-1.05 19.465-2.837 19.957-3.168 20.048-3.527 20.074-3.889 20.074H-6.317C-9.079 20.074-11.794 17.835-12.381 15.073L-16.089-2.371C-16.676-5.133-14.913-7.372-12.151-7.372H-9.772C-8.49-7.372-7.126-6.862-6.086-5.886-5.269-5.119-4.663-4.126-4.432-3.04L-3.786 0C-3.247 2.537-1.603 4.809 .534 6.311-.965 7.814-1.642 10.086-1.103 12.623M11.474 20.074H2.786C3.321 18.807 3.679 17.306 3.337 15.698L2.683 12.623C2.166 10.192 3.718 8.222 6.149 8.222H13.956L15.412 15.073C15.999 17.835 14.236 20.074 11.474 20.074" fill="#231f20"/>
</svg>
