<svg xmlns="http://www.w3.org/2000/svg" xmlns:xlink="http://www.w3.org/1999/xlink" viewBox="-1 9 133 42">
<defs>
<path id="R" d="M.083999637 0H.23799134V.22434998H.35899354L.5089874 0H.68899539L.5179901 .25035096C.6069946 .28334046 .66799929 .3543396 .66799929 .46725465V.46925355C.66799929 .535202 .6469879 .5901947 .60798647 .6291809 .56199648 .67518618 .49299623 .7001953 .4039917 .7001953H.083999637V0M.23799134 .36035157V.56118777H.3909912C.46598817 .56118777 .5119934 .5272217 .5119934 .4612732V.4592743C.5119934 .40031434 .46899415 .36035157 .3939972 .36035157H.23799134Z"/>
<path id="a" d="M.21998596-.009765625C.2939911-.009765625 .34498597 .017227173 .38198854 .05822754V0H.5289917V.31114198C.5289917 .38304139 .5109863 .44198609 .47099305 .48197938 .43299867 .519989 .37298585 .5419922 .2899933 .5419922 .19898987 .5419922 .14099121 .52497866 .08198547 .49897767L.11999512 .38304139C.16899109 .40100099 .20999146 .4119873 .2679901 .4119873 .34399415 .4119873 .3829956 .37704469 .3829956 .31414796V.30514527C.34498597 .31814576 .30599977 .32714845 .2519989 .32714845 .125 .32714845 .035995485 .27314759 .035995485 .15605164V.15405274C.035995485 .048233034 .11898804-.009765625 .21998596-.009765625M.2659912 .0952301C.21699524 .0952301 .18299866 .11921692 .18299866 .16018677V.16218567C.18299866 .2101593 .22299195 .23614502 .28799439 .23614502 .32499696 .23614502 .35899354 .22814942 .3849945 .216156V.18916321C.3849945 .13420105 .33699037 .0952301 .2659912 .0952301Z"/>
<path id="l" d="M.07499695 0H.22698975V.7299957H.07499695V0Z"/>
<path id="y" d="M.30299378 .17098999 .18099976 .5361328H.019989014L.22999573-.0020751954C.21699524-.029083252 .20298767-.037094118 .1769867-.037094118 .15699768-.037094118 .13198853-.02809143 .11199951-.016082764L.06098938-.12609864C.099990848-.14909363 .14099121-.16308594 .19599915-.16308594 .2869873-.16308594 .33099366-.12210083 .37199403-.013076782L.5779877 .5361328H.41999818L.30299378 .17098999Z"/>
</defs>
<path transform="matrix(1,0,0,-1,16.67598,32.51674)" d="M0 0-.646-3.04C-.984-4.63-1.965-6.115-3.02-7.372H5.64C8.402-7.372 11.117-5.133 11.704-2.371L13.143 4.401H5.336C2.906 4.401 .517 2.43 0 0M-1.103 12.623-.449 15.698C-.015 17.742-1.05 19.465-2.837 19.957-3.168 20.048-3.527 20.074-3.889 20.074H-6.317C-9.079 20.074-11.794 17.835-12.381 15.073L-16.089-2.371C-16.676-5.133-14.913-7.372-12.151-7.372H-9.772C-8.49-7.372-7.126-6.862-6.086-5.886-5.269-5.119-4.663-4.126-4.432-3.04L-3.786 0C-3.247 2.537-1.603 4.809 .534 6.311-.965 7.814-1.642 10.086-1.103 12.623M11.474 20.074H2.786C3.321 18.807 3.679 17.306 3.337 15.698L2.683 12.623C2.166 10.192 3.718 8.222 6.149 8.222H13.956L15.412 15.073C15.999 17.835 14.236 20.074 11.474 20.074" fill="#ffffff"/>
<use xlink:href="#R" transform="matrix(39.2194,0,8.3362,-39.2194,36.279176,39.88614)" fill="#ffffff"/>
<use xlink:href="#a" transform="matrix(39.2194,0,8.3362,-39.2194,63.06601,39.88614)" fill="#ffffff"/>
<use xlink:href="#l" transform="matrix(39.2194,0,8.3362,-39.2194,83.930728,39.88614)" fill="#ffffff"/>
<use xlink:href="#l" transform="matrix(39.2194,0,8.3362,-39.2194,94.20621,39.88614)" fill="#ffffff"/>
<use xlink:href="#y" transform="matrix(39.2194,0,8.3362,-39.2194,105.26608,39.88614)" fill="#ffffff"/>
</svg>
