<svg xmlns="http://www.w3.org/2000/svg" viewBox="0 0 240 48" fill="none">
  <!-- Shuttlecock/birdie icon -->
  <g transform="translate(2, 24)">
    <!-- Top wing feather -->
    <path d="M0-9C4-11 10-14 18-16C24-17 30-16.5 34-15C28-11 26-7 30-3L36-0.5" stroke="#1a1a1a" stroke-width="2.8" fill="none" stroke-linecap="round" stroke-linejoin="round"/>
    <!-- Bottom wing feather -->
    <path d="M0 9C4 11 10 14 18 16C24 17 30 16.5 34 15C28 11 26 7 30 3L36 0.5" stroke="#1a1a1a" stroke-width="2.8" fill="none" stroke-linecap="round" stroke-linejoin="round"/>
    <!-- Center shaft -->
    <path d="M8 0L42 0" stroke="#1a1a1a" stroke-width="2.8" stroke-linecap="round"/>
  </g>
  <!-- "Rally" as outlined paths (Inter ExtraBold style) -->
  <g fill="#1a1a1a" transform="translate(56, 8)">
    <!-- R -->
    <path d="M0 2.5C0 1.1 1.1 0 2.5 0H14C20.1 0 25 4.9 25 11C25 15.2 22.6 18.8 19.1 20.6L24.8 29.5C25.6 30.8 24.7 32.5 23.2 32.5H20.5C19.6 32.5 18.8 32 18.3 31.2L13.2 22.5H7.5V30C7.5 31.4 6.4 32.5 5 32.5H2.5C1.1 32.5 0 31.4 0 30V2.5ZM7.5 15.5H13.5C15.7 15.5 17.5 13.7 17.5 11.5V10.5C17.5 8.3 15.7 6.5 13.5 6.5H7.5V15.5Z"/>
    <!-- a -->
    <path d="M36 11C36 9.3 34.8 8.2 33 8.2C31.5 8.2 30.3 8.8 29.5 9.8L29.5 9.8C28.5 8 27.2 8.2 26.5 8.2C26.5 8.2 33 3.5 39.5 8C42 9.8 43 12.5 43 15.5V30C43 31.4 41.9 32.5 40.5 32.5H40C38.6 32.5 37.5 31.4 37.5 30V29C36.2 31.2 34 32.5 31 32.5C27.5 32.5 24.5 30.2 24.5 26.5C24.5 22.5 27.8 20.5 32.5 20.5H36V18.5C36 15.5 36 12.7 36 11ZM36 25V24H32.5C30.5 24 29 24.8 29 26.5C29 28 30.2 29 32 29C34.5 29 36 27.3 36 25Z"/>
    <!-- l -->
    <path d="M49 2.5C49 1.1 50.1 0 51.5 0H52C53.4 0 54.5 1.1 54.5 2.5V30C54.5 31.4 53.4 32.5 52 32.5H51.5C50.1 32.5 49 31.4 49 30V2.5Z"/>
    <!-- l -->
    <path d="M60 2.5C60 1.1 61.1 0 62.5 0H63C64.4 0 65.5 1.1 65.5 2.5V30C65.5 31.4 64.4 32.5 63 32.5H62.5C61.1 32.5 60 31.4 60 30V2.5Z"/>
    <!-- y -->
    <path d="M69.5 10.5C69.5 9.1 70.6 8 72 8H72.5C73.5 8 74.4 8.6 74.8 9.5L80.5 23L86.2 9.5C86.6 8.6 87.5 8 88.5 8H89C90.4 8 91.5 9.1 91.5 10.5C91.5 10.8 91.4 11.2 91.3 11.5L82.5 32L79.5 39C78.8 40.6 77.2 41.5 75.5 41.5H74C72.6 41.5 71.5 40.4 71.5 39C71.5 37.6 72.6 36.5 74 36.5H75L76.5 33L69.8 11.5C69.6 11.2 69.5 10.8 69.5 10.5Z"/>
  </g>
</svg>
