<svg xmlns="http://www.w3.org/2000/svg" xmlns:xlink="http://www.w3.org/1999/xlink" xmlns:inkscape="http://www.inkscape.org/namespaces/inkscape" version="1.1" width="137.27565" height="51.53431" viewBox="0 0 137.27565 51.53431">
<defs>
<clipPath id="clip_1">
<path transform="matrix(1,0,0,-1,-198.30832,148.05164)" d="M198.3083 96.517337H335.58396V148.05164H198.3083Z"/>
</clipPath>
<clipPath id="clip_2">
<path transform="matrix(1,0,0,-1,-198.30832,148.05164)" d="M0 0H792V612H0Z"/>
</clipPath>
<path id="font_3_83" d="M.06100464 .7138672V0H.12399292V.7138672H.06100464Z"/>
<path id="font_3_187" d="M.18299866 .7138672H.09899902V.6077881H.14100647C.14166768 .5997925 .14116414 .59095767 .13949585 .58128359 .13782756 .5716095 .1349945 .5620982 .1309967 .55274966 .1269989 .54341128 .12199911 .5352376 .115997318 .52822878 .10999552 .52123007 .10266113 .51639816 .09399414 .5137329V.47070313C.109324138 .47470094 .12248739 .48136903 .13348389 .4907074 .14449056 .50005599 .15366109 .51089987 .16099549 .52323916 .16832988 .5355784 .17382813 .5489197 .17749024 .56326296 .18116252 .5776062 .18299866 .5921173 .18299866 .60679629V.7138672Z"/>
<path id="font_3_72" d="M.054000856 .3585205H.117004398C.118337 .40052287 .13166809 .4310201 .15699768 .4500122 .18233745 .4690145 .21500652 .47851563 .25500489 .47851563 .27367149 .47851563 .2911682 .47701518 .30749513 .47401429 .32383219 .4710134 .33816529 .46551005 .35049439 .45750428 .36283366 .4494985 .37250266 .43865968 .37950135 .4249878 .38650004 .41131593 .3899994 .3938141 .3899994 .3724823 .3899994 .35847474 .38816325 .34713236 .38449098 .3384552 .38082887 .3297882 .37566123 .32295228 .36898805 .3179474 .36232505 .31295268 .35399375 .30945335 .34399415 .30744935 .33399455 .30544535 .32233177 .30377708 .30900575 .30244447 .274999 .29844667 .24149578 .294281 .2084961 .2899475 .17549642 .285614 .14582825 .2781118 .11949158 .2674408 .09316508 .2567698 .07200114 .2412618 .055999757 .22091675 .03999837 .2005717 .03199768 .1723938 .03199768 .13638306 .03199768 .11037191 .036499025 .08786011 .04550171 .068847659 .054504396 .04984538 .066838588 .034174604 .08250427 .021835328 .09816996 .009506226 .116500858 .0005086263 .13749695-.0051574709 .15850322-.01083374 .18100484-.013671875 .20500183-.013671875 .23033142-.013671875 .25216166-.01133728 .27049256-.006668091 .28883363-.002009074 .30517069 .0046539308 .31950379 .013320923 .33383689 .021987915 .34683738 .032821657 .35850526 .045822145 .37017314 .05882263 .3816732 .073654178 .39300538 .09031677H.39500428C.39500428 .07698059 .3958384 .06481425 .3975067 .05381775 .39917503 .042821248 .40267436 .03332011 .40800477 .025314331 .41333518 .017318726 .4208323 .011154175 .43049623 .0068206789 .4401703 .0024871827 .45300294 .00032043458 .46899415 .00032043458 .47766114 .00032043458 .48482768 .0006510417 .49049378 .0013122559 .49615989 .0019836426 .5026601 .0029856365 .5099945 .0043182375V.05731201C.50400289 .05464681 .49733988 .05331421 .4900055 .05331421 .46533714 .05331421 .45300294 .065979007 .45300294 .091308597V.36528016C.45300294 .39993797 .44733683 .4280955 .43600465 .4497528 .42467246 .4714203 .41000367 .48825074 .3919983 .50024417 .37400309 .51224777 .3536682 .52041628 .33099366 .52474978 .30832926 .52908328 .2856649 .53125 .2630005 .53125 .23300171 .53125 .20566814 .5279338 .18099976 .52130129 .15633138 .51466879 .13483174 .5043793 .116500858 .49043275 .09816996 .4764862 .08366903 .45851136 .07299805 .43650819 .06233724 .41451518 .05600484 .3885193 .054000856 .3585205M.3899994 .28208924V.2000885C.3899994 .17475891 .38516236 .15209453 .37548829 .13209534 .36582438 .11209615 .35282389 .09509277 .33648683 .081085208 .3201599 .06708781 .30099488 .056421918 .2789917 .049087526 .2569987 .041753133 .23400371 .038085939 .21000672 .038085939 .19533794 .038085939 .18099976 .040420534 .16699219 .04508972 .1529948 .04975891 .1406606 .056589765 .12998963 .065582279 .11932882 .07458496 .11082967 .085250858 .10449219 .097579959 .09816488 .10991923 .09500122 .12408956 .09500122 .14009094 .09500122 .16542053 .102498378 .18491619 .117492679 .19857788 .13249715 .21224976 .15166728 .22275289 .17500305 .23008728 .19833882 .23742168 .22417195 .24291992 .25250245 .24658203 .28083293 .2502543 .30833436 .25442506 .3350067 .25909425 .3436737 .26042686 .3536733 .26275636 .3650055 .26608277 .37633769 .26941935 .3840027 .27475486 .3880005 .28208924H.3899994Z"/>
<path id="font_3_91" d="M.16000366 .515625V.67089846H.09700012V.515625H.007003784V.46289063H.09700012V.110061649C.096328739 .066085819 .10432434 .03593445 .12098694 .019607544 .13765972 .0032806397 .16699727-.0048828127 .20899964-.0048828127 .21833802-.0048828127 .22767131-.0045572917 .23699951-.00390625 .24633789-.0032552083 .25567118-.0029296876 .2649994-.0029296876V.049804689C.2470042 .047851564 .2290039 .046875 .21099854 .046875 .18833415 .0482076 .1741689 .054707845 .16850281 .06637573 .16283672 .07804362 .16000366 .09421285 .16000366 .11488342V.46289063H.2649994V.515625H.16000366Z"/>
<path id="font_3_76" d="M.43099977 .2939453H.09700012C.09966532 .3173523 .105163577 .34025575 .11349487 .36265565 .12183634 .38505555 .13300579 .40478007 .14700318 .42182923 .16100057 .43888856 .17799886 .4526011 .19799805 .46296693 .21799724 .47333274 .24099732 .47851563 .2669983 .47851563 .29232789 .47851563 .31499229 .47333274 .33499146 .46296693 .35500083 .4526011 .37200419 .43888856 .3860016 .42182923 .399999 .40478007 .41082765 .3852234 .41848756 .36315919 .42615763 .34109498 .43032838 .31802369 .43099977 .2939453M.09700012 .24121094H.4940033C.4953359 .27721153 .4919993 .31271363 .48399354 .3477173 .47599793 .3827311 .4628347 .41373698 .44450379 .44073487 .42617289 .46774293 .40233866 .48957826 .3730011 .50624087 .34366355 .52291366 .30832926 .53125 .2669983 .53125 .22632854 .53125 .19116211 .5234172 .16149903 .50775149 .13183594 .49208579 .107666019 .4714203 .08898926 .445755 .07032267 .42009989 .056488038 .39094035 .04748535 .35827638 .03849284 .3256124 .033996583 .2922821 .033996583 .25828553 .033996583 .22162374 .038497926 .18679302 .04750061 .15379334 .056503297 .12080383 .07033793 .091812137 .08900452 .06681824 .107671108 .04182434 .13183594 .022160849 .16149903 .007827759 .19116211-.0065053307 .22632854-.013671875 .2669983-.013671875 .33233644-.013671875 .38283793 .0022888184 .4185028 .034210206 .4541677 .06613159 .4786682 .11142477 .4920044 .17008972H.42900086C.41900126 .13009136 .40100099 .098088588 .375 .07408142 .34899903 .05008443 .31299845 .038085939 .2669983 .038085939 .23699951 .038085939 .21133423 .04442342 .19000244 .05709839 .16867066 .06977335 .15100098 .08577982 .13699341 .1051178 .12299601 .12446594 .112828578 .14631145 .10649109 .1706543 .10016378 .19500733 .09700012 .2185262 .09700012 .24121094Z"/>
<path id="font_3_80" d="M.06100464 .7138672V.61286929H.12399292V.7138672H.06100464M.06100464 .51600649V0H.12399292V.51600649H.06100464Z"/>
<path id="font_3_89" d="M.05999756 .51660159V0H.1230011V.27497865C.1230011 .30231224 .1276652 .32747398 .13699341 .35046388 .14633179 .37346397 .15950012 .3932953 .17649842 .4099579 .1934967 .42663066 .21366374 .4394633 .23699951 .4484558 .2603353 .4574585 .28633628 .46129356 .31500245 .45996095V.5234375C.2683309 .52544149 .22815959 .51513168 .19448853 .49250794 .16082764 .4698944 .1359965 .43759156 .11999512 .39559938H.117996219V.51660159H.05999756Z"/>
<path id="font_3_3" d="M0 0Z"/>
<path id="font_3_90" d="M.3690033 .3655243H.43200685C.43067423 .39351908 .42500816 .41784669 .41500855 .43850709 .40500895 .45917765 .3915049 .4764862 .37449647 .49043275 .35749818 .5043793 .3378296 .51466879 .31549073 .52130129 .29316203 .5279338 .2689972 .53125 .24299622 .53125 .22033184 .53125 .19749959 .5285797 .17449951 .52323916 .15149944 .51790878 .13066609 .5095723 .11199951 .49822999 .093332927 .4868978 .07816569 .4718933 .0664978 .45321656 .054829915 .43454997 .04899597 .4122111 .04899597 .38619996 .04899597 .36419679 .052663167 .34569297 .05999756 .33068849 .06733195 .315684 .07749939 .30300904 .09049988 .29266358 .103500369 .28232829 .1186676 .2736613 .13600159 .2666626 .15333557 .2596639 .17233277 .25349427 .19299317 .24815369L.27398683 .23014832C.28799439 .22681172 .301829 .22280884 .31549073 .21813965 .3291626 .21348064 .34132896 .20764669 .35198976 .20063782 .36266075 .19363912 .37115989 .18496704 .37748719 .17462158 .38382469 .1642863 .3869934 .15145366 .3869934 .13612366 .3869934 .118118289 .38249208 .10294596 .37348939 .09060669 .36449687 .07826742 .35299684 .06809489 .33898927 .06008911 .32499186 .052093507 .30982463 .04642741 .29348756 .04309082 .27716065 .03975423 .26132713 .038085939 .24598694 .038085939 .20399475 .038085939 .16882833 .048919679 .14048767 .07058716 .11215719 .09225464 .09665934 .124425258 .09399414 .167099H.03100586C.03633626 .103764858 .057835897 .057800294 .09550476 .029205323 .13317363 .0006205241 .18233745-.013671875 .24299622-.013671875 .2670034-.013671875 .29133607-.011001587 .31599427-.0056610109 .34066264-.0003306071 .36282859 .008504231 .38249208 .020843506 .40216575 .03318278 .41833497 .04918925 .43099977 .068862918 .44366456 .08853658 .44999696 .11237589 .44999696 .14038086 .44999696 .16305542 .44566346 .18272908 .43699647 .19940186 .42832948 .2160848 .41716004 .23009236 .40348817 .24142456 .38982646 .25276695 .37416078 .26193748 .3564911 .26893617 .33883158 .27593486 .32099916 .28077189 .30299378 .28344728L.21899414 .30244447C.20833333 .30511985 .19666545 .30862428 .18399048 .31295777 .17132569 .31729127 .15965779 .32278953 .14898682 .3294525 .138326 .3361257 .12949626 .34429423 .12249756 .35395814 .11549886 .3636322 .11199951 .37547303 .11199951 .3894806 .11199951 .40615336 .11566671 .42015586 .1230011 .43148805 .1303355 .4428304 .13999939 .45200096 .1519928 .45899964 .16399639 .4660085 .17716472 .4710134 .1914978 .47401429 .20583089 .47701518 .22000122 .47851563 .23400879 .47851563 .252004 .47851563 .2690023 .47634889 .28500367 .47201539 .30100505 .46768189 .3151703 .46084596 .3274994 .45150758 .33983866 .44217936 .3496704 .43034873 .35699464 .41601563 .364329 .40168254 .3683319 .38485209 .3690033 .3655243Z"/>
<path id="font_3_85" d="M.059005739 .51623538V0H.12199402V.30133058C.122665408 .32669068 .12683106 .35021464 .13449097 .37190248 .14216106 .3935903 .15282695 .41227723 .16648865 .42796327 .18016052 .4436493 .1968282 .45599366 .2164917 .46499635 .2361552 .4740092 .25865684 .47851563 .28399659 .47851563 .30932618 .47851563 .3304901 .47450767 .3474884 .4664917 .3644867 .45848594 .37798564 .44747416 .38798524 .43345643 .397995 .41944886 .40499879 .40293376 .40899659 .38391114 .41299439 .36488853 .4149933 .34436546 .4149933 .32234193V0H.47799684V.33215333C.47799684 .36283366 .47499595 .3905131 .46899415 .41519166 .46299235 .4398702 .45265708 .4607137 .43798829 .47772218 .42332969 .49473063 .40383403 .50790408 .37950135 .51724246 .35516868 .5265808 .32500205 .53125 .28900147 .53125 .2523295 .53125 .21865845 .5217438 .18798828 .5027313 .1573283 .48372904 .1359965 .45855204 .12399292 .42720033H.12199402V.51623538H.059005739Z"/>
<path id="font_3_86" d="M.27799989 .47851563C.30799867 .47851563 .33433024 .47217307 .35699464 .45948792 .3796692 .44681297 .39850364 .43013 .41349793 .4094391 .4285024 .38875834 .4398346 .36523948 .4474945 .33888246 .45516459 .31252543 .45899964 .2856649 .45899964 .25830079 .45899964 .23093669 .45516459 .20407613 .4474945 .17771912 .4398346 .1513621 .4285024 .12783814 .41349793 .10714722 .39850364 .08646647 .3796692 .06978353 .35699464 .05709839 .33433024 .04442342 .30799867 .038085939 .27799989 .038085939 .2480011 .038085939 .22166443 .04442342 .19898987 .05709839 .17632549 .06978353 .15749105 .08646647 .14248657 .10714722 .12749227 .12783814 .11616007 .1513621 .10848999 .17771912 .10083008 .20407613 .09700012 .23093669 .09700012 .25830079 .09700012 .2856649 .10083008 .31252543 .10848999 .33888246 .11616007 .36523948 .12749227 .38875834 .14248657 .4094391 .15749105 .43013 .17632549 .44681297 .19898987 .45948792 .22166443 .47217307 .2480011 .47851563 .27799989 .47851563M.27799989 .53125C.23866272 .53125 .2038269 .5239156 .17349243 .5092468 .14315796 .49458824 .11765543 .4749247 .09698486 .45025636 .07632446 .42559815 .06065877 .3967692 .049987794 .36376954 .039326986 .33078004 .033996583 .29561869 .033996583 .25828553 .033996583 .22096253 .039326986 .1858012 .049987794 .15280152 .06065877 .11981201 .07632446 .09098307 .09698486 .0663147 .11765543 .041656496 .14315796 .022160849 .17349243 .007827759 .2038269-.0065053307 .23866272-.013671875 .27799989-.013671875 .31733705-.013671875 .35217286-.0065053307 .38250733 .007827759 .4128418 .022160849 .43833924 .041656496 .45899964 .0663147 .4796702 .09098307 .4953359 .11981201 .5059967 .15280152 .51666769 .1858012 .5220032 .22096253 .5220032 .25828553 .5220032 .29561869 .51666769 .33078004 .5059967 .36376954 .4953359 .3967692 .4796702 .42559815 .45899964 .45025636 .43833924 .4749247 .4128418 .49458824 .38250733 .5092468 .35217286 .5239156 .31733705 .53125 .27799989 .53125Z"/>
<path id="font_4_51" d="M.069000247 .7138672V0H.5740051V.13183594H.22599793V.7138672H.069000247Z"/>
<path id="font_4_86" d="M.17999268 .25779725C.17999268 .2784678 .18199158 .2988027 .18598938 .31880189 .18998719 .33881126 .19681804 .35648094 .20648194 .3718109 .216156 .3871511 .22899373 .3996531 .24499512 .40931703 .2609965 .4189911 .2809957 .42382813 .30499269 .42382813 .32899986 .42382813 .34916688 .4189911 .36549378 .40931703 .38183085 .3996531 .39483134 .3871511 .40449525 .3718109 .4141693 .35648094 .42100526 .33881126 .42500306 .31880189 .42900086 .2988027 .43099977 .2784678 .43099977 .25779725 .43099977 .23712667 .42900086 .21695455 .42500306 .19728089 .42100526 .17761739 .4141693 .15994771 .40449525 .14427185 .39483134 .12860616 .38183085 .116104129 .36549378 .10676575 .34916688 .09743754 .32899986 .09277344 .30499269 .09277344 .2809957 .09277344 .2609965 .09743754 .24499512 .10676575 .22899373 .116104129 .216156 .12860616 .20648194 .14427185 .19681804 .15994771 .18998719 .17761739 .18598938 .19728089 .18199158 .21695455 .17999268 .23712667 .17999268 .25779725M.037994386 .25778199C.037994386 .2163798 .044326784 .1789856 .056991579 .14559937 .06965637 .112213138 .087656658 .08366394 .11099243 .059951784 .1343282 .036249799 .16232808 .018051148 .19499207 .005355835 .22766622-.007329305 .2643331-.013671875 .30499269-.013671875 .34566245-.013671875 .38249717-.007329305 .41549684 .005355835 .4484965 .018051148 .47666423 .036249799 .5 .059951784 .52333578 .08366394 .54133608 .112213138 .55400088 .14559937 .56666567 .1789856 .57299807 .2163798 .57299807 .25778199 .57299807 .29918418 .56666567 .33674623 .55400088 .37046815 .54133608 .40420024 .52333578 .43291728 .5 .45661927 .47666423 .48033143 .4484965 .4986979 .41549684 .51171877 .38249717 .52473959 .34566245 .53125 .30499269 .53125 .2643331 .53125 .22766622 .52473959 .19499207 .51171877 .16232808 .4986979 .1343282 .48033143 .11099243 .45661927 .087656658 .43291728 .06965637 .40420024 .056991579 .37046815 .044326784 .33674623 .037994386 .29918418 .037994386 .25778199Z"/>
<path id="font_4_78" d="M.29499818 .12207031C.272995 .12207031 .25465904 .12673442 .23999024 .13606262 .22532146 .14539083 .21348572 .15737915 .20448303 .17202759 .19549053 .1866862 .18915813 .20317078 .18548584 .22148133 .18182373 .23980205 .17999268 .25829063 .17999268 .27694703 .17999268 .29626466 .18215943 .31474815 .18649292 .33239747 .19082642 .35005699 .19782512 .3657125 .20748902 .379364 .21716309 .39301554 .22916667 .4038391 .24349976 .41183473 .25783286 .41983033 .274999 .42382813 .29499818 .42382813 .31833396 .42382813 .33766685 .41949464 .35299684 .41082765 .3683268 .4021708 .380661 .3905131 .3899994 .3758545 .39933778 .36120606 .40600587 .34439088 .41000367 .32540895 .41400147 .306427 .41600038 .28627525 .41600038 .2649536 .41600038 .24630738 .41349793 .22849019 .40849305 .21150208 .40349833 .19451396 .3960012 .17935689 .3860016 .16603089 .37600199 .15271504 .36333213 .14205933 .34799195 .13406372 .33266197 .12606812 .31499736 .12207031 .29499818 .12207031M.5509949 .03277588V.516922H.41600038V.44792176H.41400147C.39666749 .4780426 .37516786 .49946086 .34950257 .5121765 .32383729 .52489218 .29400126 .53125 .2599945 .53125 .22399394 .53125 .19215901 .52424117 .16448975 .5102234 .13683065 .49620567 .11366781 .47735087 .09500122 .45365907 .07633463 .42996726 .062164308 .40260316 .052490236 .37156678 .042826337 .3405304 .037994386 .3083242 .037994386 .27494813 .037994386 .23957825 .042160036 .20603943 .050491334 .17433167 .05882263 .14263408 .07198588 .11493429 .08998108 .0912323 .10798645 .06754049 .13099163 .048853559 .15899658 .03517151 .18700154 .021489462 .22033692 .0146484379 .2590027 .0146484379 .29033409 .0146484379 .320165 .021174113 .34849549 .034225465 .37683616 .047276815 .39867149 .06752523 .41400147 .0949707H.41600038V.026779175C.41667176-.009994507 .4078369-.040415449 .38949586-.06448364 .37116496-.08855184 .34200035-.10058594 .30200196-.10058594 .27667237-.10058594 .2543386-.09539795 .23500061-.08502197 .21566265-.074645999 .20266216-.056070966 .19599915-.029296875H.054992677C.056996664-.05863444 .0651652-.08380127 .07949829-.10479736 .09383138-.12580364 .111831668-.14297486 .13349915-.15631104 .15516663-.16964722 .17916362-.17947896 .20549011-.18580628 .23182678-.19214376 .257665-.1953125 .28300477-.1953125 .34233094-.1953125 .3896586-.18730672 .4249878-.17129517 .46032716-.15529378 .4873301-.13578797 .5059967-.11277771 .52466329-.089767459 .53682968-.06492615 .5424957-.038253786 .5481618-.011581421 .5509949 .012095134 .5509949 .03277588Z"/>
<path id="font_4_91" d="M.23399353 .51660159V.671875H.09199524V.51660159H.005996704V.421875H.09199524V.11705017C.09199524 .091059368 .096328739 .07006836 .10499573 .05407715 .11366272 .038085939 .12549336 .025756836 .14048767 .017089844 .15549214 .008433024 .17282613 .002609253 .19248963-.00038146974 .21216329-.003382365 .23300171-.0048828127 .25500489-.0048828127 .2690023-.0048828127 .28333537-.0045572917 .29800416-.00390625 .31267295-.0032552083 .32600404-.001953125 .33799745 0V.110443118C.33133445 .10911051 .32433573 .10810852 .31700135 .107437137 .30966697 .10677592 .30200196 .10644531 .29400636 .10644531 .26999919 .10644531 .2539927 .11043803 .24598694 .11842346 .23799134 .12640889 .23399353 .14237976 .23399353 .16633606V.421875H.33799745V.51660159H.23399353Z"/>
<path id="font_4_96" d="M.30900575-.06378174 .5249939 .51660159H.37800599L.2649994 .16297913H.2630005L.1459961 .51660159H-.005004883L.17599488 .0320282C.18000286 .022038779 .18200684 .011383057 .18200684 .000061035159 .18200684-.015258789 .1775055-.029246012 .16850281-.041900636 .15950012-.054555257 .14566548-.061884565 .1269989-.06388855 .1130015-.06454977 .09899902-.06421407 .084991458-.06288147 .07099406-.06154887 .057332357-.060216268 .044006349-.058883668V-.17578125C.05866496-.17708333 .073160808-.17822266 .0874939-.17919922 .10182699-.18017578 .11632792-.18066406 .1309967-.18066406 .17966207-.18066406 .21766155-.17167156 .24499512-.15368653 .2723287-.13571167 .29366557-.10574341 .30900575-.06378174Z"/>
<path id="font_4_87" d="M.31500245 .09277344C.29232789 .09277344 .2729899 .09743754 .25698854 .10676575 .24099732 .116104129 .22816468 .12827556 .2184906 .14328003 .2088267 .1582845 .201828 .17578633 .1974945 .19578552 .19316101 .21579488 .19099427 .23613484 .19099427 .25680543 .19099427 .2781372 .19299317 .2988027 .19699097 .31880189 .20098877 .33881126 .20781963 .35648094 .21748352 .3718109 .2271576 .3871511 .23982747 .3996531 .25549317 .40931703 .27115885 .4189911 .29065959 .42382813 .31399537 .42382813 .33666993 .42382813 .35584007 .4189911 .37150575 .40931703 .38717143 .3996531 .40000407 .38698326 .41000367 .37130738 .42000328 .3556417 .4271698 .33780924 .4315033 .31781007 .4358368 .29781089 .43800355 .27747599 .43800355 .25680543 .43800355 .23613484 .43600465 .21579488 .43200685 .19578552 .42800904 .17578633 .4211731 .1582845 .41149903 .14328003 .4018351 .12827556 .38917033 .116104129 .37350465 .10676575 .35783897 .09743754 .33833824 .09277344 .31500245 .09277344M.054000856 .516922V-.18066406H.19599915V.06364441H.19799805C.21533203 .038202924 .23749797 .018956503 .26449586 .0059051516 .29149375-.0071461999 .32099406-.013671875 .35299684-.013671875 .39100138-.013671875 .4241689-.006327311 .4524994 .008361816 .48082987 .023050944 .5044963 .042750043 .52349856 .06745911 .5425008 .092168178 .5566661 .12054952 .56599429 .15260315 .57533267 .18465679 .58000186 .2180481 .58000186 .2527771 .58000186 .2895101 .57533267 .32473756 .56599429 .35845948 .5566661 .3921814 .54233297 .4217275 .522995 .44709779 .5036672 .47247825 .4793345 .49284873 .44999696 .5082092 .42066957 .52356979 .385671 .53125 .34500123 .53125 .31299845 .53125 .2836609 .52489218 .25698854 .5121765 .23032634 .49946086 .20832825 .4790446 .19099427 .45092774H.18899536V.516922H.054000856Z"/>
<path id="font_4_76" d="M.4019928 .31347657H.17100525C.17166646 .32350669 .17382813 .33487449 .17749024 .34757997 .18116252 .36029563 .1875 .3723348 .19650269 .3836975 .20550537 .3950704 .21750386 .40460206 .23249817 .41229249 .24750264 .4199829 .26633708 .42382813 .28900147 .42382813 .32366944 .42382813 .34950257 .41446433 .36650086 .3957367 .38349916 .37700907 .3953298 .34958903 .4019928 .31347657M.17100525 .22363281H.54400637C.54667159 .26371257 .54333499 .30212403 .5339966 .3388672 .5246684 .37561036 .50950118 .40834046 .48849488 .4370575 .46749879 .4657847 .44066368 .48866273 .4079895 .5056915 .37532554 .5227305 .33699546 .53125 .29299928 .53125 .2536621 .53125 .21782939 .524236 .1855011 .51020815 .1531728 .4961904 .12534078 .47699485 .102005008 .45262147 .07866923 .42824809 .060668947 .3993632 .04800415 .3659668 .035339357 .33258058 .029006958 .29651896 .029006958 .25778199 .029006958 .21772258 .03517151 .18099468 .04750061 .14759827 .059839887 .114212039 .07734171 .085494998 .1000061 .061447145 .122670497 .037409467 .15033467 .018880209 .18299866 .005859375 .21566265-.0071614587 .2523295-.013671875 .29299928-.013671875 .35166423-.013671875 .4016622-.00035095216 .44299317 .026290894 .48433433 .05293274 .51500448 .097229007 .53500369 .15917969H.41000367C.40533448 .14332073 .39266459 .12828572 .37199403 .11407471 .35133363 .09987386 .32667033 .09277344 .29800416 .09277344 .25800578 .09277344 .22733562 .10309347 .20599365 .12373352 .18466187 .14438375 .17299907 .17768352 .17100525 .22363281Z"/>
<path id="font_4_3" d="M0 0Z"/>
<path id="font_4_61" d="M.40100099 0 .6380005 .7138672H.47599793L.31500245 .21195984H.31300355L.15400696 .7138672H-.007003784L.22399903 0H.40100099Z"/>
<path id="font_4_23" d="M.16299439 .35308839C.16299439 .36507163 .16316223 .37954713 .16349793 .3965149 .16383362 .41349284 .16499837 .43096415 .16699219 .44892884 .16899617 .4669037 .17232768 .4847056 .1769867 .5023346 .18165589 .51997378 .18815613 .53578189 .19648743 .5497589 .2048289 .56373599 .21549988 .5750478 .22850037 .58369448 .24150086 .59235128 .257665 .5966797 .2769928 .5966797 .29633079 .5966797 .31266786 .59235128 .32600404 .58369448 .3393402 .5750478 .3503418 .56373599 .3590088 .5497589 .36767579 .53578189 .37417604 .51997378 .37850953 .5023346 .38284303 .4847056 .38617454 .4669037 .38850404 .44892884 .39083354 .43096415 .39216615 .41349284 .39250184 .3965149 .39283753 .37954713 .39300538 .36507163 .39300538 .35308839 .39300538 .33312989 .39233909 .30900575 .39100648 .28071595 .38967387 .25242616 .3855082 .22513835 .37850953 .19885254 .37151084 .17256673 .36017356 .15010579 .34449769 .13146973 .328832 .11283366 .30633036 .103515628 .2769928 .103515628 .24832662 .103515628 .22632344 .11283366 .21098328 .13146973 .19565328 .15010579 .18448894 .17256673 .17749024 .19885254 .17049153 .22513835 .16632588 .25242616 .16499329 .28071595 .16366069 .30900575 .16299439 .33312989 .16299439 .35308839M.020996094 .35308839C.020996094 .28313194 .027826945 .22466533 .041488649 .1776886 .055160524 .13072205 .073664348 .09324646 .09700012 .06526184 .1203359 .03727722 .14750164 .017288208 .17849732 .0052948 .20950318-.0066986086 .242335-.0126953129 .2769928-.0126953129 .31233216-.0126953129 .34549967-.0066986086 .37649537 .0052948 .40750123 .017288208 .4348348 .03727722 .4584961 .06526184 .48216758 .09324646 .50083419 .13072205 .51449587 .1776886 .5281677 .22466533 .53500369 .28313194 .53500369 .35308839 .53500369 .42104087 .5281677 .47816978 .51449587 .5244751 .50083419 .57078048 .48216758 .6079254 .4584961 .63591006 .4348348 .66389468 .40750123 .68388369 .37649537 .6958771 .34549967 .7078705 .31233216 .7138672 .2769928 .7138672 .242335 .7138672 .20950318 .7078705 .17849732 .6958771 .14750164 .68388369 .1203359 .66389468 .09700012 .63591006 .073664348 .6079254 .055160524 .57078048 .041488649 .5244751 .027826945 .47816978 .020996094 .42104087 .020996094 .35308839Z"/>
<path id="font_4_25" d="M.037002565 .4308014H.17300415C.17300415 .449468 .1748352 .4683024 .17849732 .4873047 .1821696 .50630697 .18833924 .52364096 .19700623 .53930667 .20567322 .55497238 .21717327 .56763717 .23150635 .577301 .24583943 .5869649 .26334129 .5917969 .28401185 .5917969 .31467185 .5917969 .3398336 .58230087 .35949708 .5633087 .37917076 .5443166 .38900758 .51782736 .38900758 .48384095 .38900758 .46250917 .38417054 .44351197 .37449647 .42684938 .36483256 .41018678 .35283409 .39519248 .33850099 .38186646 .32416789 .36854045 .30833436 .35637919 .29100038 .3453827 .27366639 .3343862 .25733439 .32355754 .2420044 .31289674 .21200562 .29223634 .1835022 .27190653 .15649414 .25190736 .12949626 .23191834 .10599772 .21009319 .085998538 .18643189 .06599935 .16278076 .050165815 .13595581 .038497926 .10595703 .026830038 .07596842 .020996094 .040649415 .020996094 0H.53500369V.12207031H.20399475C.22132874 .14605713 .24132793 .16704814 .2639923 .18504334 .28666688 .20303853 .31000266 .21986389 .33399964 .23551941 .3579966 .2511851 .38183085 .26701356 .40550233 .28300477 .4291738 .29900614 .4503428 .3168335 .4690094 .33648683 .487676 .3561503 .50267538 .37864176 .51400759 .40396119 .5253398 .42929078 .53100588 .45962016 .53100588 .49494935 .53100588 .52893576 .5245056 .55959066 .5115051 .58691409 .49850465 .6142375 .4810028 .63722738 .45899964 .6558838 .43700663 .67455038 .4115092 .68887838 .38250733 .6988678 .35350547 .7088674 .32300315 .7138672 .29100038 .7138672 .248998 .7138672 .21182759 .70669558 .17948914 .6923523 .14716085 .67800906 .12033081 .65799459 .09899902 .63230898 .07766724 .6066335 .06166585 .57662966 .050994874 .54229739 .040334066 .5079651 .035669965 .47079978 .037002565 .4308014Z"/>
<path id="font_4_42" d="M.54499819 .4736328H.6970062C.69233706 .5149638 .68099978 .5516205 .6629944 .5836029 .6449992 .6155955 .62216696 .6424103 .5944977 .66404727 .5668284 .6856944 .53549197 .7021739 .5004883 .7134857 .46549479 .72480776 .42833457 .73046877 .38900758 .73046877 .33434043 .73046877 .2851715 .720815 .24150086 .70150759 .19784038 .68220016 .16100566 .65556338 .1309967 .6215973 .100997928 .5876414 .07799784 .5478566 .06199646 .50224307 .045995077 .45662944 .037994386 .40719096 .037994386 .3539276 .037994386 .3019867 .045995077 .25354515 .06199646 .2086029 .07799784 .16366069 .100997928 .12454224 .1309967 .09124756 .16100566 .05795288 .19784038 .031814577 .24150086 .012832642 .2851715-.0061391198 .33434043-.015625 .38900758-.015625 .43300376-.015625 .47333274-.008967082 .5099945 .004348755 .54666647 .017674765 .57866927 .036987306 .6060028 .062286378 .63333639 .08759562 .6553345 .118245448 .6719971 .15423584 .68866989 .19022624 .6990051 .23055522 .7030029 .27522279H.5509949C.54500326 .2272288 .5285034 .18856304 .50149539 .15922547 .47449748 .12989807 .43700157 .115234378 .38900758 .115234378 .3536682 .115234378 .32366435 .12206014 .29899598 .13571167 .2743276 .1493632 .2543284 .1675059 .23899842 .19013977 .22366841 .21278382 .21250408 .23825073 .20550537 .26654054 .19850667 .29484049 .19500733 .3239746 .19500733 .35394288 .19500733 .38523356 .19850667 .41552735 .20550537 .44482423 .21250408 .4741211 .22366841 .50025436 .23899842 .5232239 .2543284 .5461934 .2743276 .56450399 .29899598 .5781555 .32366435 .59180709 .3536682 .5986328 .38900758 .5986328 .40833537 .5986328 .426829 .59546408 .44448854 .5891266 .4621582 .58279928 .47799174 .57396957 .49198915 .5626373 .5059967 .5513051 .5176646 .5381368 .5269928 .5231323 .5363312 .508138 .54233297 .49163819 .54499819 .4736328Z"/>
<clipPath id="clip_5">
<path transform="matrix(1,0,0,-1,-198.30832,148.05164)" d="M0 612H792V0H0Z"/>
</clipPath>
<path id="font_6_1" d="M.083999637 0H.23799134V.22434998H.35899354L.5089874 0H.68899539L.5179901 .25035096C.6069946 .28334046 .66799929 .3543396 .66799929 .46725465V.46925355C.66799929 .535202 .6469879 .5901947 .60798647 .6291809 .56199648 .67518618 .49299623 .7001953 .4039917 .7001953H.083999637V0M.23799134 .36035157V.56118777H.3909912C.46598817 .56118777 .5119934 .5272217 .5119934 .4612732V.4592743C.5119934 .40031434 .46899415 .36035157 .3939972 .36035157H.23799134Z"/>
<path id="font_6_2" d="M.21998596-.009765625C.2939911-.009765625 .34498597 .017227173 .38198854 .05822754V0H.5289917V.31114198C.5289917 .38304139 .5109863 .44198609 .47099305 .48197938 .43299867 .519989 .37298585 .5419922 .2899933 .5419922 .19898987 .5419922 .14099121 .52497866 .08198547 .49897767L.11999512 .38304139C.16899109 .40100099 .20999146 .4119873 .2679901 .4119873 .34399415 .4119873 .3829956 .37704469 .3829956 .31414796V.30514527C.34498597 .31814576 .30599977 .32714845 .2519989 .32714845 .125 .32714845 .035995485 .27314759 .035995485 .15605164V.15405274C.035995485 .048233034 .11898804-.009765625 .21998596-.009765625M.2659912 .0952301C.21699524 .0952301 .18299866 .11921692 .18299866 .16018677V.16218567C.18299866 .2101593 .22299195 .23614502 .28799439 .23614502 .32499696 .23614502 .35899354 .22814942 .3849945 .216156V.18916321C.3849945 .13420105 .33699037 .0952301 .2659912 .0952301Z"/>
<path id="font_6_3" d="M.07499695 0H.22698975V.7299957H.07499695V0Z"/>
<path id="font_6_4" d="M.30299378 .17098999 .18099976 .5361328H.019989014L.22999573-.0020751954C.21699524-.029083252 .20298767-.037094118 .1769867-.037094118 .15699768-.037094118 .13198853-.02809143 .11199951-.016082764L.06098938-.12609864C.099990848-.14909363 .14099121-.16308594 .19599915-.16308594 .2869873-.16308594 .33099366-.12210083 .37199403-.013076782L.5779877 .5361328H.41999818L.30299378 .17098999Z"/>
</defs>
<g clip-path="url(#clip_1)">
<g clip-path="url(#clip_2)">
<path transform="matrix(1,0,0,-1,-198.30832,148.05164)" d="M625.099 71.572H435.021V170.867H625.099Z" fill="#231f20"/>
<path transform="matrix(1,0,0,-1,-184.37442,-444.34645)" stroke-width=".5" stroke-linecap="butt" stroke-miterlimit="4" stroke-linejoin="miter" fill="none" stroke="#231f20" d="M0 0H760.478"/>
<path transform="matrix(1,0,0,-1,-184.37432,124.025638)" stroke-width=".5" stroke-linecap="butt" stroke-miterlimit="4" stroke-linejoin="miter" fill="none" stroke="#939597" d="M0 0H760.478"/>
<use data-text="l" xlink:href="#font_3_83" transform="matrix(6,0,0,-6,538.25808,133.32454)" fill="#231f20"/>
<use data-text="&#x2019;" xlink:href="#font_3_187" transform="matrix(6,0,0,-6,539.36807,133.32454)" fill="#231f20"/>
<use data-text="a" xlink:href="#font_3_72" transform="matrix(6,0,0,-6,541.03616,133.32454)" fill="#231f20"/>
<use data-text="t" xlink:href="#font_3_91" transform="matrix(6,0,0,-6,544.15017,133.32454)" fill="#231f20"/>
<use data-text="e" xlink:href="#font_3_76" transform="matrix(6,0,0,-6,545.92617,133.32454)" fill="#231f20"/>
<use data-text="l" xlink:href="#font_3_83" transform="matrix(6,0,0,-6,549.04019,133.32454)" fill="#231f20"/>
<use data-text="i" xlink:href="#font_3_80" transform="matrix(6,0,0,-6,550.15017,133.32454)" fill="#231f20"/>
<use data-text="e" xlink:href="#font_3_76" transform="matrix(6,0,0,-6,551.26016,133.32454)" fill="#231f20"/>
<use data-text="r" xlink:href="#font_3_89" transform="matrix(6,0,0,-6,554.37417,133.32454)" fill="#231f20"/>
<use data-text=" " xlink:href="#font_3_3" transform="matrix(6,0,0,-6,556.26419,133.32454)" fill="#231f20"/>
<use data-text="s" xlink:href="#font_3_90" transform="matrix(6,0,0,-6,557.9321,133.32454)" fill="#231f20"/>
<use data-text="t" xlink:href="#font_3_91" transform="matrix(6,0,0,-6,560.8181,133.32454)" fill="#231f20"/>
<use data-text="a" xlink:href="#font_3_72" transform="matrix(6,0,0,-6,562.5941,133.32454)" fill="#231f20"/>
<use data-text="r" xlink:href="#font_3_89" transform="matrix(6,0,0,-6,565.7081,133.32454)" fill="#231f20"/>
<use data-text="n" xlink:href="#font_3_85" transform="matrix(6,0,0,-6,567.7062,133.32454)" fill="#231f20"/>
<use data-text="o" xlink:href="#font_3_86" transform="matrix(6,0,0,-6,570.9281,133.32454)" fill="#231f20"/>
<path transform="matrix(1,0,0,-1,-184.37482,124.025638)" stroke-width=".5" stroke-linecap="butt" stroke-miterlimit="4" stroke-linejoin="miter" fill="none" stroke="#231f20" d="M0 0H760.478"/>
<use data-text="L" xlink:href="#font_4_51" transform="matrix(14,0,0,-14,-184.27272,-418.81849)" fill="#231f20"/>
<use data-text="o" xlink:href="#font_4_86" transform="matrix(14,0,0,-14,-175.97072,-418.81849)" fill="#231f20"/>
<use data-text="g" xlink:href="#font_4_78" transform="matrix(14,0,0,-14,-167.41672,-418.81849)" fill="#231f20"/>
<use data-text="o" xlink:href="#font_4_86" transform="matrix(14,0,0,-14,-158.86272,-418.81849)" fill="#231f20"/>
<use data-text="t" xlink:href="#font_4_91" transform="matrix(14,0,0,-14,-150.30872,-418.81849)" fill="#231f20"/>
<use data-text="y" xlink:href="#font_4_96" transform="matrix(14,0,0,-14,-145.3807,-418.81849)" fill="#231f20"/>
<use data-text="p" xlink:href="#font_4_87" transform="matrix(14,0,0,-14,-138.11472,-418.81849)" fill="#231f20"/>
<use data-text="e" xlink:href="#font_4_76" transform="matrix(14,0,0,-14,-129.56072,-418.81849)" fill="#231f20"/>
<use data-text=" " xlink:href="#font_4_3" transform="matrix(14,0,0,-14,-121.52471,-418.81849)" fill="#231f20"/>
<use data-text="V" xlink:href="#font_4_61" transform="matrix(14,0,0,-14,-117.63271,-418.81849)" fill="#231f20"/>
<use data-text="0" xlink:href="#font_4_23" transform="matrix(14,0,0,-14,-108.81271,-418.81849)" fill="#231f20"/>
<use data-text="2" xlink:href="#font_4_25" transform="matrix(14,0,0,-14,-101.02871,-418.81849)" fill="#231f20"/>
<use data-text="C" xlink:href="#font_4_42" transform="matrix(14,0,0,-14,-93.244709,-418.81849)" fill="#231f20"/>
<path transform="matrix(1,0,0,-1,-198.30832,148.05164)" stroke-width=".35" stroke-linecap="butt" stroke-miterlimit="10" stroke-linejoin="miter" fill="none" stroke="#231f20" d="M356.082 71.572H166.004V170.867H356.082Z"/>
<g clip-path="url(#clip_5)">
<path transform="matrix(1,0,0,-1,36.297487,-203.65796)" d="M0 0-2.266-10.662C-3.452-16.239-6.892-21.445-10.591-25.855H19.779C29.465-25.855 38.987-18.002 41.046-8.316L46.094 15.433H18.713C10.19 15.433 1.812 8.523 0 0M-3.867 44.268-1.575 55.051C-.051 62.22-3.681 68.262-9.95 69.988-11.111 70.307-12.369 70.399-13.638 70.399H-22.155C-31.841 70.399-41.362 62.546-43.421 52.86L-56.425-8.316C-58.483-18.002-52.3-25.855-42.614-25.855H-34.271C-29.774-25.855-24.989-24.065-21.344-20.643-18.479-17.953-16.352-14.468-15.543-10.662L-13.277-.001C-11.386 8.898-5.623 16.863 1.873 22.134-3.382 27.404-5.759 35.37-3.867 44.268M40.238 70.399H9.769C11.647 65.956 12.901 60.693 11.701 55.051L9.41 44.268C7.598 35.745 13.039 28.835 21.563 28.835H48.942L54.049 52.86C56.108 62.546 49.925 70.399 40.238 70.399" fill="#f15a29"/>
<path transform="matrix(1,0,0,-1,169.72208,-227.37937)" d="M0 0C10.315 0 17.399 5.502 19.124 13.616L19.182 13.892C21.112 22.969 15.779 27.646 5.464 27.646H-15.579L-21.456 0ZM-32.697 46.765H11.315C23.556 46.765 32.315 43.325 37.297 36.999 41.522 31.635 42.802 24.07 40.872 14.992L40.813 14.718C37.51-.825 27.044-10.591 13.839-15.13L30.05-49.515H5.292L-8.79-18.705H-25.432L-31.98-49.515H-53.161Z" fill="#09003a"/>
<path transform="matrix(1,0,0,-1,257.42518,-203.85965)" d="M0 0 .79 3.714C-2.436 5.365-6.879 6.465-11.968 6.465-20.908 6.465-27.169 2.889-28.573-3.713L-28.63-3.989C-29.83-9.628-25.856-12.929-19.116-12.929-9.351-12.929-1.608-7.564 0 0M-49.024-4.813-48.966-4.539C-45.546 11.554-31.726 18.982-14.259 18.982-6.832 18.982-1.73 17.743 3.115 15.956L3.378 17.192C5.22 25.858 .879 30.672-9.573 30.672-17.551 30.672-23.511 29.16-30.777 26.684L-32.612 42.638C-23.737 46.214-15.262 48.553-2.746 48.553 8.668 48.553 16.279 45.526 20.394 40.3 24.725 34.799 25.477 26.684 23.372 16.78L14.28-25.995H-5.938L-4.243-18.018C-10.53-23.656-18.335-27.37-28.513-27.37-42.404-27.37-52.124-19.393-49.024-4.813" fill="#09003a"/>
<path transform="matrix(1,0,0,-1,303.7761,-278.27058)" d="M0 0H20.905L-.437-100.406H-21.343Z" fill="#09003a"/>
<path transform="matrix(1,0,0,-1,339.8088,-278.27058)" d="M0 0H20.905L-.436-100.406H-21.341Z" fill="#09003a"/>
<path transform="matrix(1,0,0,-1,420.37248,-251.58737)" d="M0 0H21.73L-22.652-75.511C-31.477-90.502-38.728-96.141-51.244-96.141-58.809-96.141-64.038-94.217-68.73-91.053L-58.5-75.923C-56.099-77.573-52.924-78.812-50.173-78.812-46.597-78.812-44.438-77.711-41.861-73.998L-55.014 0H-32.871L-26.763-50.203Z" fill="#09003a"/>
<path transform="matrix(1,0,0,-1,16.67598,32.51674)" d="M0 0-.646-3.04C-.984-4.63-1.965-6.115-3.02-7.372H5.64C8.402-7.372 11.117-5.133 11.704-2.371L13.143 4.401H5.336C2.906 4.401 .517 2.43 0 0M-1.103 12.623-.449 15.698C-.015 17.742-1.05 19.465-2.837 19.957-3.168 20.048-3.527 20.074-3.889 20.074H-6.317C-9.079 20.074-11.794 17.835-12.381 15.073L-16.089-2.371C-16.676-5.133-14.913-7.372-12.151-7.372H-9.772C-8.49-7.372-7.126-6.862-6.086-5.886-5.269-5.119-4.663-4.126-4.432-3.04L-3.786 0C-3.247 2.537-1.603 4.809 .534 6.311-.965 7.814-1.642 10.086-1.103 12.623M11.474 20.074H2.786C3.321 18.807 3.679 17.306 3.337 15.698L2.683 12.623C2.166 10.192 3.718 8.222 6.149 8.222H13.956L15.412 15.073C15.999 17.835 14.236 20.074 11.474 20.074" fill="#231f20"/>
<use data-text="R" xlink:href="#font_6_1" transform="matrix(39.2194,0,8.3362,-39.2194,36.279176,39.88614)" fill="#231f20"/>
<use data-text="a" xlink:href="#font_6_2" transform="matrix(39.2194,0,8.3362,-39.2194,63.06601,39.88614)" fill="#231f20"/>
<use data-text="l" xlink:href="#font_6_3" transform="matrix(39.2194,0,8.3362,-39.2194,83.930728,39.88614)" fill="#231f20"/>
<use data-text="l" xlink:href="#font_6_3" transform="matrix(39.2194,0,8.3362,-39.2194,94.20621,39.88614)" fill="#231f20"/>
<use data-text="y" xlink:href="#font_6_4" transform="matrix(39.2194,0,8.3362,-39.2194,105.26608,39.88614)" fill="#231f20"/>
<path transform="matrix(1,0,0,-1,282.52149,32.51674)" d="M0 0-.646-3.04C-.984-4.63-1.965-6.115-3.02-7.372H5.64C8.402-7.372 11.117-5.133 11.704-2.371L13.143 4.401H5.336C2.906 4.401 .517 2.43 0 0M-1.103 12.623-.449 15.698C-.015 17.742-1.05 19.465-2.837 19.957-3.168 20.048-3.527 20.074-3.889 20.074H-6.317C-9.079 20.074-11.794 17.835-12.381 15.073L-16.089-2.371C-16.676-5.133-14.913-7.372-12.151-7.372H-9.772C-8.49-7.372-7.126-6.862-6.086-5.886-5.269-5.119-4.663-4.126-4.432-3.04L-3.786 0C-3.247 2.537-1.603 4.809 .534 6.311-.965 7.814-1.642 10.086-1.103 12.623M11.474 20.074H2.786C3.321 18.807 3.679 17.306 3.337 15.698L2.683 12.623C2.166 10.192 3.718 8.222 6.149 8.222H13.956L15.412 15.073C15.999 17.835 14.236 20.074 11.474 20.074" fill="#ffffff"/>
<use data-text="R" xlink:href="#font_6_1" transform="matrix(39.2194,0,8.3362,-39.2194,302.1247,39.88614)" fill="#ffffff"/>
<use data-text="a" xlink:href="#font_6_2" transform="matrix(39.2194,0,8.3362,-39.2194,328.91154,39.88614)" fill="#ffffff"/>
<use data-text="l" xlink:href="#font_6_3" transform="matrix(39.2194,0,8.3362,-39.2194,349.77629,39.88614)" fill="#ffffff"/>
<use data-text="l" xlink:href="#font_6_3" transform="matrix(39.2194,0,8.3362,-39.2194,360.0518,39.88614)" fill="#ffffff"/>
<use data-text="y" xlink:href="#font_6_4" transform="matrix(39.2194,0,8.3362,-39.2194,371.11167,39.88614)" fill="#ffffff"/>
</g>
</g>
</g>
</svg>
